<svg width="105" height="54" viewBox="0 0 105 54" fill="none" xmlns="http://www.w3.org/2000/svg">
<path fill-rule="evenodd" clip-rule="evenodd" d="M63.4919 33.2402C64.2913 37.4099 62.1259 40.8732 60.3267 44.2349C58.3281 47.3627 55.0296 50.0509 51.065 49.6486C42.1683 49.5141 33.4731 48.1356 25.4095 45.6801C25.0433 45.5796 24.6772 45.3434 24.4768 45.0078C24.31 44.5366 24.544 44.0993 24.8765 43.7976C32.2404 37.7782 41.0027 34.9883 49.6654 32.0617C52.8967 31.1204 56.3295 30.1113 59.9605 30.5825C61.4586 30.7848 62.9578 31.8278 63.4919 33.2402ZM93.8443 15.4194C97.9758 18.8489 101.708 23.5236 100.441 29.1723C98.3755 37.5115 89.3803 41.9501 82.2168 44.7739C78.3182 46.0858 74.3871 47.4316 70.1224 47.835C69.8559 47.8011 69.4226 47.8678 69.3555 47.4644L69.4551 46.9943C75.5191 40.1003 80.1164 32.3679 84.1493 24.5326C86.0146 21.0015 87.7479 17.3709 89.3467 13.8058C89.5796 13.5369 89.8136 13.4024 90.0801 13.3018C91.5782 13.4352 92.6452 14.6126 93.8443 15.4194ZM35.7035 6.54231L35.5702 7.04628C26.8079 17.0997 21.044 28.7678 15.5801 40.3681C14.5142 41.3772 13.4808 40.0314 12.5145 39.5941C7.64967 36.3669 3.25171 31.1543 4.51802 24.9677C6.55018 16.8985 14.7796 12.5945 21.6441 9.67008C25.7084 8.12315 29.9407 6.87904 34.4047 6.17281C34.8716 6.17168 35.4706 6.10501 35.7035 6.54231ZM79.1848 8.15592C79.6842 8.42485 80.2843 8.52542 80.5844 9.02939C80.8508 9.60115 80.3179 9.97066 80.0178 10.3413C73.1208 15.7878 65.2251 18.815 57.1614 21.4715C53.0624 22.4806 48.9309 24.2965 44.3673 23.2874C43.3002 23.0185 42.3351 22.3123 41.735 21.2693C40.6019 18.1087 42.1347 14.8137 43.4671 12.0566C45.2327 8.59321 48.3655 4.52417 52.6963 4.45751C62.0252 4.38971 70.8211 5.80218 79.1848 8.15592ZM90.7127 8.42485C97.7765 12.3255 105.773 19.1845 104.94 28.3305C103.974 36.8042 96.1441 42.7219 89.1474 46.2869C68.7229 56.1392 40.0365 56.4409 18.9458 47.8339C11.8147 44.8417 3.81824 39.6969 0.81872 31.9622C-1.47991 25.6073 1.31808 18.9833 6.01723 14.5787C15.8455 5.56714 28.3732 2.4744 41.2681 0.691298C55.2625 -1.024 69.9881 0.489032 82.5158 4.82701C85.3149 5.86998 88.0804 7.01351 90.7127 8.42485Z" fill="white"/>
</svg>
