<svg width="26" height="26" viewBox="0 0 26 26" fill="none" xmlns="http://www.w3.org/2000/svg">
<path d="M13 0.000439644C5.82105 0.000439644 0 5.82035 0 12.9999C0 20.1794 5.82048 25.9993 13 25.9993C20.1801 25.9993 26 20.1794 26 12.9999C26 5.82035 20.1801 0.000439644 13 0.000439644ZM13 3.88742C15.3755 3.88742 17.3004 5.81292 17.3004 8.18725C17.3004 10.5622 15.3755 12.4871 13 12.4871C10.6257 12.4871 8.70074 10.5622 8.70074 8.18725C8.70074 5.81292 10.6257 3.88742 13 3.88742ZM12.9971 22.6005C10.628 22.6005 8.45805 21.7377 6.78437 20.3096C6.37666 19.9618 6.14139 19.4519 6.14139 18.9169C6.14139 16.5088 8.09031 14.5816 10.4989 14.5816H15.5022C17.9114 14.5816 19.8529 16.5088 19.8529 18.9169C19.8529 19.4525 19.6188 19.9613 19.2105 20.309C17.5374 21.7377 15.3669 22.6005 12.9971 22.6005Z" fill="#7890AB"/>
</svg>
