<svg width="24" height="24" viewBox="0 0 24 24" fill="none" xmlns="http://www.w3.org/2000/svg">
<path d="M19.5675 12C19.5673 11.5402 19.525 11.0814 19.4414 10.6292L22 9.16667L19.4775 4.83333L16.918 6.29917C16.2113 5.69994 15.3993 5.23495 14.5225 4.9275V2H9.47751V4.9275C8.60074 5.23495 7.78866 5.69994 7.08198 6.29917L4.52249 4.83333L2 9.16667L4.55865 10.6292C4.39057 11.5355 4.39057 12.4645 4.55865 13.3708L2 14.8333L4.52249 19.1667L7.08198 17.7017C7.78873 18.3006 8.6008 18.7653 9.47751 19.0725V22H14.5225V19.0725C15.3993 18.7651 16.2113 18.3001 16.918 17.7008L19.4775 19.1667L22 14.8333L19.4414 13.3708C19.525 12.9186 19.5673 12.4598 19.5675 12ZM14.5225 12C14.5225 12.4945 14.3745 12.9778 14.0974 13.3889C13.8202 13.8 13.4262 14.1205 12.9653 14.3097C12.5044 14.4989 11.9972 14.5484 11.5079 14.452C11.0186 14.3555 10.5691 14.1174 10.2163 13.7678C9.86355 13.4181 9.62331 12.9727 9.52598 12.4877C9.42865 12.0028 9.4786 11.5001 9.66952 11.0433C9.86044 10.5865 10.1838 10.196 10.5986 9.92133C11.0134 9.64662 11.5011 9.5 12 9.5C12.669 9.5 13.3106 9.76339 13.7837 10.2322C14.2567 10.7011 14.5225 11.337 14.5225 12Z" fill="white"/>
</svg>
